<?xml version="1.0" encoding="UTF-8"?><svg id="Layer_13" xmlns="http://www.w3.org/2000/svg" width="440" height="380" viewBox="0 0 440 380"><defs><style>.cls-a1{fill:#fff;}.cls-a2{fill:#64aecc;}.cls-a3{opacity:.16;}.cls-a3,.cls-a4{fill:#023047;}.cls-a5{fill:#fed9b7;}.cls-a6{fill:#fb8500;}.cls-a7{fill:none;stroke:#ffb703;stroke-miterlimit:10;stroke-width:.81px;}.cls-a8{fill:#82a860;}.cls-a9{fill:#219ebc;}.cls-a10{opacity:.54;}.cls-a10,.cls-a11{fill:#fdfcdc;}.cls-a12{fill:#ffb703;}.cls-a13{fill:#35596c;}.cls-a14{fill:#8ecae6;}.cls-a15{fill:#92979b;}.cls-a16{fill:#a1aaaf;}.cls-a17{fill:#ffeedf;}.cls-a18{fill:#e9c46a;}.cls-a19{fill:#264653;}.cls-a20{fill:#f07167;}</style></defs><rect class="cls-a18" x="85.15" y="49.71" width="276.01" height="276.01" rx="43.7" ry="43.7" transform="translate(-12.62 16.12) rotate(-4.02)"/><ellipse class="cls-a8" cx="214.09" cy="340.69" rx="200.11" ry="34"/><path class="cls-a15" d="m214.09,374.69c48.26,0,92.53-2.9,127.09-7.74l-22.58-55.27c-30.42-3.17-66.21-5-104.51-5-32.37,0-62.95,1.31-90.01,3.63-.05.05-50.55,54.55-51.16,54.48,36.19,6.12,86.08,9.9,141.17,9.9Z"/><g><g><path class="cls-a10" d="m87.27,104.36c-.51,0-1.03-.01-1.54-.04-16.38-.78-29.71-14.23-30.34-30.62-.34-8.76,2.82-17.07,8.89-23.38,5.31-5.52,12.21-8.86,19.71-9.62,5.86-8.79,15.87-14.27,26.58-14.27s20.72,5.48,26.57,14.26c7.55.73,14.51,4.09,19.84,9.64,6.07,6.31,9.23,14.61,8.89,23.38-.63,16.39-13.97,29.84-30.35,30.62-.51.02-1.02.04-1.53.04h0c-8.94,0-17.4-3.82-23.36-10.2-5.96,6.38-14.42,10.2-23.36,10.2Z"/><path class="cls-a11" d="m133.99,51.56c-.27,0-.54,0-.81.02-1.6.06-3.07-.81-3.77-2.26-3.37-7.02-10.54-11.86-18.84-11.86s-15.47,4.85-18.84,11.86c-.69,1.44-2.16,2.31-3.76,2.26-.23,0-.47-.01-.7-.01-11.81,0-21.34,9.81-20.88,21.72.42,10.75,9.11,19.53,19.86,20.04,8.73.42,16.35-4.53,19.86-11.83.69-1.44,2.16-2.32,3.76-2.26.23,0,.47.01.7.01.27,0,.54,0,.81-.02,1.6-.06,3.08.82,3.77,2.26,3.51,7.3,11.12,12.24,19.85,11.83,10.75-.51,19.45-9.29,19.87-20.04.46-11.92-9.06-21.72-20.88-21.72Z"/><g><g><path class="cls-a4" d="m110.06,97.6h-2.13l.12,1.67h-5.11l-9.63-8.36h-5.24l-.09.66h4.22c.21,0,.41.09.56.24l8.91,9.55c.43.46,1.04.73,1.68.73h7.23l-.51-4.48Z"/><path class="cls-a13" d="m102.94,99.27h5.11l-.12-1.67h-4.15c-.32,0-.63-.11-.88-.31l-8.42-6.83c-.43-.35-.97-.54-1.53-.54h-4.74l-.14.99h5.24l9.63,8.36Z"/></g><g><path class="cls-a4" d="m111.07,97.6h2.13l-.12,1.67h5.11l9.63-8.36h5.24l.09.66h-4.22c-.21,0-.41.09-.56.24l-8.91,9.55c-.43.46-1.04.73-1.68.73h-7.23l.51-4.48Z"/><path class="cls-a13" d="m118.2,99.27h-5.11l.12-1.67h4.15c.32,0,.63-.11.88-.31l8.42-6.83c.43-.35.97-.54,1.53-.54h4.74l.14.99h-5.24l-9.63,8.36Z"/></g><path class="cls-a4" d="m118.31,259.74v-18.85l-4.01-25.29,2.03-3.84c.62-1.18.62-2.6-.01-3.78l-2.3-4.28c-.07-.13-.1-.27-.1-.41v-1.96c0-.22.08-.43.23-.59l2.17-2.34c.41-.44.54-1.07.35-1.64l-2.49-7.35c-.05-.14-.07-.28-.07-.42v-3.67h-7v3.67c0,.14-.02.29-.07.42l-2.49,7.35c-.19.57-.06,1.2.35,1.64l2.17,2.34c.15.16.23.37.23.59v1.96c0,.14-.04.28-.1.41l-2.3,4.28c-.63,1.18-.64,2.6-.01,3.78l2.03,3.84-4.01,25.29v18.85h15.4Z"/><g><polygon class="cls-a6" points="112.83 51.56 108.8 51.56 103.88 57.62 117.74 57.62 112.83 51.56"/><polygon class="cls-a12" points="115.84 57.06 110.81 57.06 110.81 51.56 112.45 51.56 115.84 57.06"/><path class="cls-a12" d="m106.4,74.04h8.74c.87,0,1.58.71,1.58,1.58v.29h-11.9v-.29c0-.87.71-1.58,1.58-1.58Z"/><rect class="cls-a4" x="102.56" y="57.06" width="16.02" height="1.68" rx=".71" ry=".71"/><polygon class="cls-a6" points="115.5 74.04 106.07 74.04 104.53 61.53 117.04 61.53 115.5 74.04"/><polygon class="cls-a4" points="113.16 49.49 108.44 49.49 108.8 51.56 112.8 51.56 113.16 49.49"/><polygon class="cls-a6" points="112.67 47.78 112.67 48.37 112.12 48.37 112.12 47.78 111.07 47.78 111.07 48.37 110.53 48.37 110.53 47.78 109.47 47.78 109.47 48.37 108.93 48.37 108.93 47.78 107.87 47.78 107.87 48.37 107.87 48.71 107.87 49.49 113.72 49.49 113.72 48.71 113.72 48.37 113.72 47.78 112.67 47.78"/><ellipse class="cls-a11" cx="110.66" cy="64.98" rx="3.82" ry="4.92"/><g><line class="cls-a7" x1="107.49" y1="60.93" x2="108.53" y2="74.61"/><line class="cls-a7" x1="113.84" y1="60.93" x2="112.81" y2="74.61"/></g><rect class="cls-a12" x="104.42" y="59.66" width="12.71" height="1.87"/><path class="cls-a6" d="m103.3,58.74h14.77v.2c0,.61-.5,1.11-1.11,1.11h-12.55c-.61,0-1.11-.5-1.11-1.11v-.2h0Z"/></g><g><path class="cls-a4" d="m86.48,90.15l-2.47-.68c-.36-.1-.76,0-1.02.28l-.86.88c-.4.42-.39,1.08.03,1.48h0c.28.26.68.35,1.04.23l2.42-.82.85-1.14v-.21Z"/><g><g><polygon class="cls-a6" points="89.41 58.35 85.38 58.35 80.46 64.41 94.33 64.41 89.41 58.35"/><polygon class="cls-a12" points="92.42 63.85 87.39 63.85 87.39 58.35 89.03 58.35 92.42 63.85"/><path class="cls-a12" d="m82.98,80.83h8.74c.87,0,1.58.71,1.58,1.58v.29h-11.9v-.29c0-.87.71-1.58,1.58-1.58Z"/><rect class="cls-a4" x="79.14" y="63.85" width="16.02" height="1.68" rx=".71" ry=".71"/><polygon class="cls-a6" points="92.08 80.83 82.65 80.83 81.11 68.32 93.62 68.32 92.08 80.83"/><polygon class="cls-a4" points="89.74 56.27 85.02 56.27 85.38 58.35 89.39 58.35 89.74 56.27"/><polygon class="cls-a6" points="89.25 54.57 89.25 55.16 88.71 55.16 88.71 54.57 87.66 54.57 87.66 55.16 87.11 55.16 87.11 54.57 86.06 54.57 86.06 55.16 85.51 55.16 85.51 54.57 84.46 54.57 84.46 55.16 84.46 55.5 84.46 56.27 90.31 56.27 90.31 55.5 90.31 55.16 90.31 54.57 89.25 54.57"/><ellipse class="cls-a11" cx="87.24" cy="71.77" rx="3.82" ry="4.92"/><g><line class="cls-a7" x1="84.07" y1="67.72" x2="85.11" y2="81.4"/><line class="cls-a7" x1="90.42" y1="67.72" x2="89.39" y2="81.4"/></g><rect class="cls-a12" x="81" y="66.45" width="12.71" height="1.87"/><path class="cls-a6" d="m79.88,65.53h14.77v.2c0,.61-.5,1.11-1.11,1.11h-12.55c-.61,0-1.11-.5-1.11-1.11v-.2h0Z"/></g><path class="cls-a4" d="m89.96,90.34c0,1.42-1.15,2.18-2.56,2.18s-2.56-.77-2.56-2.18,1.15-2.56,2.56-2.56,2.56,1.15,2.56,2.56Z"/><path class="cls-a4" d="m86.54,86.21h1.7c1.07,0,1.94.87,1.94,1.94v.35h-5.57v-.35c0-1.07.87-1.94,1.94-1.94Z"/><polygon class="cls-a4" points="90.1 86.21 84.68 86.21 83.24 82.7 91.55 82.7 90.1 86.21"/><rect class="cls-a4" x="85.99" y="92.61" width="2.8" height="2.8" rx="1.18" ry="1.18" transform="translate(92.08 -34.26) rotate(45)"/><path class="cls-a4" d="m86.1,92.13h2.59v.12c0,.36-.29.66-.66.66h-1.28c-.36,0-.66-.29-.66-.66v-.12h0Z"/></g></g><g><path class="cls-a4" d="m134.66,90.15l2.47-.68c.36-.1.76,0,1.02.28l.86.88c.4.42.39,1.08-.03,1.48h0c-.28.26-.68.35-1.04.23l-2.42-.82-.85-1.14v-.21Z"/><g><g><polygon class="cls-a6" points="131.73 58.35 135.76 58.35 140.67 64.41 126.81 64.41 131.73 58.35"/><polygon class="cls-a12" points="128.72 63.85 133.74 63.85 133.74 58.35 132.11 58.35 128.72 63.85"/><path class="cls-a12" d="m127.83,80.83h11.9v.29c0,.87-.71,1.58-1.58,1.58h-8.74c-.87,0-1.58-.71-1.58-1.58v-.29h0Z" transform="translate(267.56 163.52) rotate(180)"/><rect class="cls-a4" x="125.98" y="63.85" width="16.02" height="1.68" rx=".71" ry=".71" transform="translate(267.97 129.39) rotate(180)"/><polygon class="cls-a6" points="129.05 80.83 138.48 80.83 140.02 68.32 127.51 68.32 129.05 80.83"/><polygon class="cls-a4" points="131.39 56.27 136.11 56.27 135.76 58.35 131.75 58.35 131.39 56.27"/><polygon class="cls-a6" points="131.88 54.57 131.88 55.16 132.43 55.16 132.43 54.57 133.48 54.57 133.48 55.16 134.03 55.16 134.03 54.57 135.08 54.57 135.08 55.16 135.63 55.16 135.63 54.57 136.68 54.57 136.68 55.16 136.68 55.5 136.68 56.27 130.83 56.27 130.83 55.5 130.83 55.16 130.83 54.57 131.88 54.57"/><ellipse class="cls-a11" cx="133.9" cy="71.77" rx="3.82" ry="4.92"/><g><line class="cls-a7" x1="137.06" y1="67.72" x2="136.03" y2="81.4"/><line class="cls-a7" x1="130.71" y1="67.72" x2="131.75" y2="81.4"/></g><rect class="cls-a12" x="127.43" y="66.45" width="12.71" height="1.87" transform="translate(267.56 134.77) rotate(180)"/><path class="cls-a6" d="m127.59,65.53h12.55c.61,0,1.11.5,1.11,1.11v.2h-14.77v-.2c0-.61.5-1.11,1.11-1.11Z" transform="translate(267.73 132.38) rotate(180)"/></g><path class="cls-a4" d="m131.18,90.34c0,1.42,1.15,2.18,2.56,2.18s2.56-.77,2.56-2.18-1.15-2.56-2.56-2.56-2.56,1.15-2.56,2.56Z"/><path class="cls-a4" d="m130.96,86.21h5.57v.35c0,1.07-.87,1.94-1.94,1.94h-1.7c-1.07,0-1.94-.87-1.94-1.94v-.35h0Z" transform="translate(267.49 174.71) rotate(180)"/><polygon class="cls-a4" points="131.03 86.21 136.45 86.21 137.9 82.7 129.59 82.7 131.03 86.21"/><rect class="cls-a4" x="132.34" y="92.61" width="2.8" height="2.8" rx="1.18" ry="1.18" transform="translate(294.79 65.91) rotate(135)"/><path class="cls-a4" d="m133.1,92.13h1.28c.36,0,.66.29.66.66v.12h-2.59v-.12c0-.36.29-.66.66-.66Z" transform="translate(267.49 185.04) rotate(-180)"/></g></g><circle class="cls-a4" cx="110.57" cy="99.75" r="4.94"/><circle class="cls-a4" cx="110.57" cy="107.51" r="3.57"/><path class="cls-a4" d="m112.16,79.42h1.12l1.44-3.52h-8.31l1.44,3.52h1.12c-.66,0-1.2.54-1.2,1.2v1.09h1.01c-.48.47-.78,1.12-.78,1.84,0,.94.51,1.6,1.27,1.93v.12c0,.26.19.46.44.5l-.53.53c-.33.33-.33.86,0,1.19l.79.79s0,0,0,0c-.73.3-1.25,1.14-1.25,2.13,0,.56.16,1.06.44,1.45.21.3,0,.71-.37.71h0c-.54,0-.97.43-.97.97v.56c0,.54.43.97.97.97h3.52c.54,0,.97-.43.97-.97v-.56c0-.54-.43-.97-.97-.97h0c-.37,0-.58-.41-.37-.71.27-.39.44-.9.44-1.45,0-.99-.52-1.83-1.25-2.13,0,0,0,0,0,0l.79-.79c.33-.33.33-.86,0-1.19l-.53-.53c.25-.04.44-.25.44-.5v-.12c.76-.33,1.27-.99,1.27-1.93,0-.72-.3-1.38-.78-1.84h1.01v-1.09c0-.66-.54-1.2-1.2-1.2Z"/><polygon class="cls-a4" points="113.36 113.83 108.05 113.83 108.89 110.63 112.51 110.63 113.36 113.83"/><rect class="cls-a4" x="107" y="113.83" width="7.33" height="1.76" rx=".74" ry=".74"/><rect class="cls-a4" x="107" y="116.2" width="7.33" height="1.76" rx=".74" ry=".74"/><rect class="cls-a13" x="107" y="115" width="7.33" height="1.76" rx=".74" ry=".74"/><polygon class="cls-a4" points="114.05 184.59 107.16 184.59 107.95 117.18 113.26 117.18 114.05 184.59"/><polygon class="cls-a13" points="114.05 184.59 110.73 184.59 110.7 117.97 113.26 117.97 114.05 184.59"/><rect class="cls-a4" x="106.19" y="182.72" width="8.98" height="1.05" rx=".44" ry=".44"/><rect class="cls-a4" x="106.19" y="184.26" width="8.98" height="1.05" rx=".44" ry=".44"/></g></g><g><rect class="cls-a11" x="95.06" y="242.34" width="31.01" height="2.92" rx="1.23" ry="1.23"/><path class="cls-a5" d="m142.53,289.49v-2.3l-3.52-1.79c-4.33-2.2-7.06-6.64-7.06-11.49v-14.78h1.38c.25,0,.46-.21.46-.46v-3.76c0-.25-.21-.46-.46-.46h-3.91v-1.65c0-.44-.36-.81-.81-.81h-2.8v-2.37c0-.62-.32-1.2-.85-1.53l-4.59-2.84h-18.51l-4.59,2.84c-.53.33-.85.91-.85,1.53v2.37h-2.8c-.44,0-.81.36-.81.81v1.65h-3.91c-.25,0-.46.21-.46.46v3.76c0,.25.21.46.46.46h1.38v14.78c0,4.85-2.73,9.3-7.06,11.49l-3.52,1.79v2.3h62.82Z"/><path class="cls-a11" d="m126.44,285.41c-4.33-2.2-7.06-6.64-7.06-11.49v-14.78h1.38c.25,0,.46-.21.46-.46v-3.76c0-.25-.21-.46-.46-.46h-3.91v-1.65c0-.44-.36-.81-.81-.81h-2.8v-2.37c0-.62-.32-1.2-.85-1.53l-4.59-2.84h-5.94l-4.59,2.84c-.53.33-.85.91-.85,1.53v2.37h-2.8c-.44,0-.81.36-.81.81v1.65h-3.91c-.25,0-.46.21-.46.46v3.76c0,.25.21.46.46.46h1.38v14.78c0,4.85-2.73,9.3-7.06,11.49l-3.52,1.79v2.3h50.26v-2.3l-3.52-1.79Z"/><rect class="cls-a11" x="60.19" y="289.49" width="100.76" height="6.54"/><path class="cls-a5" d="m157.46,296.04v5.32l-2.52,3.01c-1.82,2.18-4.29,3.73-7.04,4.44l-5.37,1.38v1.56l2.62.31c1.02.12,1.79.99,1.79,2.01v5.08h-73.9v-5.08c0-1.03.77-1.89,1.79-2.01l2.62-.31v-1.56l-5.37-1.38c-2.75-.71-5.22-2.26-7.04-4.44l-2.52-3.01v-5.32h94.94Z"/><rect class="cls-a20" x="77.46" y="310.19" width="65.07" height="1.56"/><rect class="cls-a20" x="62.52" y="296.04" width="94.72" height="4.15"/><polygon class="cls-a20" points="101.86 245.26 97.7 247.84 122.02 246.28 120.37 245.26 101.86 245.26"/></g></g><path class="cls-a3" d="m276.45,334.54c-10.42,0-20.02.55-27.68,1.48-2.64.32-5.3,0-7.79-.93-12.92-4.76-39.47-8.02-70.14-8.02-43.35,0-78.5,6.53-78.5,14.58s35.14,14.58,78.5,14.58c30.66,0,57.22-3.27,70.14-8.02,2.49-.92,5.15-1.25,7.79-.93,7.65.93,17.25,1.48,27.68,1.48,25.02,0,45.3-3.18,45.3-7.1s-20.28-7.1-45.3-7.1Z"/><ellipse class="cls-a17" cx="143.48" cy="323.11" rx="4.57" ry="1.64"/><path class="cls-a1" d="m138.29,164.11c-9.53,0-19.82,1.3-23.13,6.48-1.05,1.65-1.14,3.49-.25,5.33,1.93,3.98,7.67,6.8,13.95,6.86,44.84.4,169.4.99,170.66.99,11.99,0,18.77-4.87,19.07-9.45.23-3.63-3.59-8.1-14.99-9.77-9.72-1.43-26.79,7.81-26.96,7.9-.17.09-.37.05-.49-.1-.13-.15-.14-.37-.04-.54.1-.17,9.83-16.67,4.33-27.6-3.22-6.39-10.99-9.7-23.1-9.82-.17,0-.33,0-.5,0-26.71,0-48.1,22.1-48.31,22.33-.13.14-.34.17-.5.07-.16-.1-.24-.3-.19-.5.03-.11,2.73-11.56-2.98-19.51-3.7-5.15-10.09-7.76-18.99-7.76-28.45,0-30.8,35.38-30.82,35.74,0,.12-.06.24-.15.31-.09.08-.2.12-.31.1-3.23-.4-9.57-1.04-16.29-1.04Z"/><g><path class="cls-a1" d="m283.25,337.09v4.13l-.99,6.2c-.18,1.13.69,2.16,1.84,2.16h18.28c.85,0,1.53-.69,1.53-1.53v-1.31c0-.62-.3-1.2-.8-1.57l-8.57-6.18-1.63-5.29-9.66,3.39Z"/><path class="cls-a1" d="m262.11,327.41l2.63,3.18,4.71,4.14c.86.76.84,2.1-.04,2.83l-14.09,11.65c-.65.54-1.62.45-2.15-.2l-.83-1.01c-.4-.48-.54-1.12-.38-1.72l2.67-10.22-2.12-5.11,9.61-3.55Z"/><path class="cls-a9" d="m296.55,285.61l.96,55.09-15.73.86-4.53-36.73c-.11-1.16-.86-2.16-1.95-2.59l-.97-.38c-1.14-.45-2.43-.19-3.3.66l-10.97,10.69,5.13,16.8s-13.16,5.03-13.27,4.71c-.07-.22-4.89-13.61-8.04-22.35-1.64-4.55-.63-9.63,2.61-13.22l16.77-17.38,33.27,3.85Z"/><path class="cls-a4" d="m315.26,243.91s10.06,5.4,9.94,16.12l-15.42-1.55,5.47-14.57Z"/><path class="cls-a4" d="m248.73,241.62s2.34-10.42,14.36-14.52v8.72l-7.56,5.79h-6.8Z"/><path class="cls-a5" d="m263.09,230.53l-7.8-8.43-9.68-11.72,3.24-9.74c.13-2.1-1-4.07-2.87-5.02l-2.56-1.31c-2.97-1.52-6.59.07-7.48,3.28l-1.33,4.77c-.31,1.1-.25,2.27.17,3.34l3.68,9.44,7.48,13.2,11.71,13.22,5.46-11.04Z"/><path class="cls-a5" d="m310.71,248.49l9.83-5.95,12.54-8.59-.42-10.26c.46-2.05,2.09-3.63,4.15-4.03l2.83-.55c3.28-.64,6.31,1.89,6.29,5.22l-.04,4.95c0,1.14-.39,2.25-1.08,3.16l-6.14,8.06-10.84,10.62-14.9,9.48-2.2-12.12Z"/><path class="cls-a12" d="m285.07,244.35l-12.58-2.49-13.82,38.94s14.6,14.44,43.35,6.1l-2.78-37.28-14.16-5.27Z"/><g><g><path class="cls-a4" d="m156.72,325.32v7.61l1.82,11.42c.33,2.08-1.28,3.97-3.39,3.97h-33.69c-1.56,0-2.82-1.26-2.82-2.82v-2.41c0-1.14.55-2.22,1.48-2.89l15.79-11.39,3-9.75,17.8,6.25Z"/><path class="cls-a19" d="m139.52,187.47l-4.34,134.23s7.36,5.22,25.4,3.32l6.43-112.76h1.88v-24.79h-29.37Z"/></g><g><path class="cls-a4" d="m181.07,325.32v7.61l-1.82,11.42c-.33,2.08,1.28,3.97,3.39,3.97h33.69c1.56,0,2.82-1.26,2.82-2.82v-2.41c0-1.14-.55-2.22-1.48-2.89l-15.79-11.39-3-9.75-17.8,6.25Z"/><path class="cls-a19" d="m198.26,187.47l4.34,134.23s-7.36,5.22-25.4,3.32l-6.43-112.76h-1.88v-24.79h29.37Z"/></g></g><polygon class="cls-a4" points="139.3 184.74 139.3 186.93 138.95 205.12 198.34 189.84 198.34 183.65 139.3 184.74"/><path class="cls-a2" d="m137.56,179.77v7.69s32.95,9.94,62.67-1.83v-7.55l-62.67,1.69Z"/><path class="cls-a5" d="m98.92,176.13l-5.44,5.72c-.98,1.03-1.65,2.3-1.96,3.69l-1.8,8.24c-.53,2.41.68,4.86,2.9,5.93l.36.17c2.2,1.05,4.84.46,6.39-1.42l3.07-3.73c1.42-1.73,2.2-3.89,2.2-6.13v-2.99l1.09,5.96,2.09-.04,1.22-13.91-10.13-1.5Z"/><path class="cls-a5" d="m231.58,176.13l5.44,5.72c.98,1.03,1.65,2.3,1.96,3.69l1.8,8.24c.53,2.41-.68,4.86-2.9,5.93l-.36.17c-2.2,1.05-4.84.46-6.39-1.42l-3.07-3.73c-1.42-1.73-2.2-3.89-2.2-6.13v-2.99l-1.09,5.96-2.09-.04-1.22-13.91,10.13-1.5Z"/><path class="cls-a14" d="m154.78,83.65h26.43c7.36,0,16.09,4.36,19.01,11.11,8.9,20.54,25.55,50.76,33.74,79.73.49,1.73-.24,3.57-1.77,4.52l-9.38,5.83c-2.18,1.36-5.06.36-5.94-2.06l-21.05-60.31,6.19,49.93c.37,3.76-2.03,7.24-5.69,8.17-9.97,2.56-30.96,6.06-57.18-.21-3.72-.89-6.17-4.46-5.76-8.26l6.48-48.34-24.29,55.62c-1.46,3.23-5.41,4.46-8.44,2.63l-8.29-5c-2.59-1.56-3.58-4.82-2.31-7.55l40.18-75.27c3.03-6.52,10.88-10.55,18.07-10.55Z"/><path class="cls-a5" d="m161.33,76.12h12.66v11.21c0,1.56-1.27,2.83-2.83,2.83h-7.01c-1.56,0-2.83-1.27-2.83-2.83v-11.21h0Z"/><polygon class="cls-a4" points="173.99 82.27 167.66 80.85 161.33 68.23 173.99 68.23 173.99 82.27"/><path class="cls-a5" d="m181.71,60.78c0,9.18-6.29,20.07-14.05,20.07s-14.05-10.9-14.05-20.07,6.29-16.61,14.05-16.61,14.05,7.44,14.05,16.61Z"/><path class="cls-a4" d="m153.61,62.84s-6.32-3.27-5.83-8.82c.49-5.55,1.14-7.78,4.68-7.84,0,0,3.65-14.2,15.89-13.88,12.25.33,17.8,7.29,21.12,18.61,0,0-1.85,6.37-3.76,7.29s-.48,3.97-4,4.95c0,0,.79-3.87-.46-6.62-1.26-2.74-15.79,4.66-20.41-4.54,0,0-2.87,9.52-7.23,10.83Z"/><path class="cls-a5" d="m282.51,241.87h9.1v8.07c0,1.12-.91,2.03-2.03,2.03h-5.04c-1.12,0-2.03-.91-2.03-2.03v-8.07h0Z" transform="translate(99.3 -81.9) rotate(19.57)"/><polygon class="cls-a4" points="291.56 247.86 287.61 245.37 286.36 235.29 294.94 238.34 291.56 247.86"/><path class="cls-a5" d="m307.71,231.55c-3.09,8.69-12.71,16.88-20.06,14.27-7.35-2.61-9.63-15.04-6.55-23.73,3.09-8.69,11.55-13.61,18.89-11,7.35,2.61,10.8,11.77,7.71,20.46Z"/><path class="cls-a4" d="m282.24,219.5s6.6-4.2,10.81.9c7.75,9.38,11.44,3.17,14.99,12.48v-2.4s-1.66,5.37-4.55,8.37c0,0,12.85-5.59,9.66-15.58,0,0-.63-8.26-9.16-12.87-8.71-4.72-21.2-7.64-21.74,9.11Z"/><path class="cls-a12" d="m273.26,241.9l-10.17-14.8s-4.21,12.8-14.36,14.52l17.48,17.33,7.05-17.04Z"/><path class="cls-a12" d="m299.23,249.77l16.04-5.86s-.2,14.41,9.94,16.12l-25.29,9.05-.69-19.32Z"/></g><ellipse class="cls-a16" cx="318.32" cy="352.11" rx="4.57" ry="1.64"/><ellipse class="cls-a16" cx="289.5" cy="353.76" rx="4.57" ry="1.64"/><ellipse class="cls-a16" cx="305.4" cy="357.86" rx="11.41" ry="4.1"/><ellipse class="cls-a16" cx="225.5" cy="319.08" rx="11.41" ry="4.1"/></svg>