<svg id="Layer_13" xmlns="http://www.w3.org/2000/svg" width="440" height="380" xmlns:xlink="http://www.w3.org/1999/xlink" viewBox="0 0 440 380"><defs><style>.cls-1{stroke:url(#linear-gradient-29);}.cls-1,.cls-2,.cls-3,.cls-4,.cls-5,.cls-6,.cls-7,.cls-8,.cls-9,.cls-10,.cls-11,.cls-12,.cls-13,.cls-14,.cls-15,.cls-16,.cls-17,.cls-18,.cls-19,.cls-20,.cls-21,.cls-22,.cls-23,.cls-24,.cls-25,.cls-26,.cls-27,.cls-28,.cls-29,.cls-30,.cls-31,.cls-32{fill:none;stroke-miterlimit:10;}.cls-1,.cls-3,.cls-4,.cls-5,.cls-6,.cls-7,.cls-8,.cls-9,.cls-10,.cls-11,.cls-12,.cls-13,.cls-15,.cls-16,.cls-17,.cls-18,.cls-19,.cls-20,.cls-21,.cls-22,.cls-23,.cls-24,.cls-25,.cls-26,.cls-27,.cls-28,.cls-29,.cls-30,.cls-31,.cls-32{stroke-linecap:round;stroke-width:1.78px;}.cls-2{stroke-width:4.76px;}.cls-2,.cls-14{stroke:#264653;}.cls-33{fill:#fff;}.cls-34{fill:#fed9b7;}.cls-35{fill:#fb8500;}.cls-3{stroke:url(#linear-gradient-15);}.cls-4{stroke:url(#linear-gradient-5);}.cls-5{stroke:url(#linear-gradient-16);}.cls-6{stroke:url(#linear-gradient-12);}.cls-7{stroke:url(#linear-gradient-25);}.cls-8{stroke:url(#linear-gradient-23);}.cls-36{fill:#82a860;}.cls-9{stroke:url(#linear-gradient-24);}.cls-10{stroke:url(#linear-gradient-11);}.cls-11{stroke:url(#linear-gradient-3);}.cls-37{fill:#ffb703;}.cls-12{stroke:url(#linear-gradient);}.cls-13{stroke:url(#linear-gradient-2);}.cls-14{stroke-width:2.86px;}.cls-38{fill:#f9ab75;}.cls-15{stroke:url(#linear-gradient-19);}.cls-16{stroke:url(#linear-gradient-26);}.cls-39{fill:#f4a261;}.cls-40{fill:#1b4559;}.cls-17{stroke:url(#linear-gradient-6);}.cls-18{stroke:url(#linear-gradient-27);}.cls-41{fill:#8ecae6;}.cls-19{stroke:url(#linear-gradient-13);}.cls-20{stroke:url(#linear-gradient-17);}.cls-21{stroke:url(#linear-gradient-14);}.cls-22{stroke:url(#linear-gradient-22);}.cls-42{fill:#e76f51;}.cls-23{stroke:url(#linear-gradient-8);}.cls-43{fill:#023047;}.cls-24{stroke:url(#linear-gradient-20);}.cls-44{fill:#e9c46a;}.cls-25{stroke:url(#linear-gradient-7);}.cls-26{stroke:url(#linear-gradient-28);}.cls-27{stroke:url(#linear-gradient-9);}.cls-28{stroke:url(#linear-gradient-30);}.cls-29{stroke:url(#linear-gradient-4);}.cls-30{stroke:url(#linear-gradient-10);}.cls-31{stroke:url(#linear-gradient-18);}.cls-32{stroke:url(#linear-gradient-21);}.cls-45{fill:#00afb9;}.cls-46{fill:#264653;}.cls-47{fill:#f07167;}.cls-48{fill:#d35a54;}.cls-49{fill:#e89256;}</style><linearGradient id="linear-gradient" x1="-157.13" y1="363.04" x2="-157.13" y2="320.62" gradientTransform="translate(270.69) rotate(-180) scale(1 -1)" gradientUnits="userSpaceOnUse"><stop offset="0" stop-color="#2a9d8f"/><stop offset="1" stop-color="#264653"/></linearGradient><linearGradient id="linear-gradient-2" x1="-141.54" x2="-141.54" y2="314.88" xlink:href="#linear-gradient"/><linearGradient id="linear-gradient-3" x1="-149.56" x2="-149.56" y2="319.35" xlink:href="#linear-gradient"/><linearGradient id="linear-gradient-4" x1="-153.38" x2="-153.38" y2="327.45" xlink:href="#linear-gradient"/><linearGradient id="linear-gradient-5" x1="-145.55" x2="-145.55" y2="315.16" xlink:href="#linear-gradient"/><linearGradient id="linear-gradient-6" x1="-137.68" x2="-137.68" y2="319.07" xlink:href="#linear-gradient"/><linearGradient id="linear-gradient-7" x1="-122.08" x2="-122.08" y2="307.15" xlink:href="#linear-gradient"/><linearGradient id="linear-gradient-8" x1="-130.1" x2="-130.1" y2="328.4" xlink:href="#linear-gradient"/><linearGradient id="linear-gradient-9" x1="-133.92" x2="-133.92" y2="325.9" xlink:href="#linear-gradient"/><linearGradient id="linear-gradient-10" x1="-126.09" x2="-126.09" y2="309.75" xlink:href="#linear-gradient"/><linearGradient id="linear-gradient-11" x1="-118.22" x2="-118.22" y2="304.99" xlink:href="#linear-gradient"/><linearGradient id="linear-gradient-12" x1="-102.63" x2="-102.63" y2="307.15" xlink:href="#linear-gradient"/><linearGradient id="linear-gradient-13" x1="-110.64" x2="-110.64" y2="314.32" xlink:href="#linear-gradient"/><linearGradient id="linear-gradient-14" x1="-114.46" x2="-114.46" y2="311.82" xlink:href="#linear-gradient"/><linearGradient id="linear-gradient-15" x1="-106.63" x2="-106.63" y2="309.75" xlink:href="#linear-gradient"/><linearGradient id="linear-gradient-16" x1="-98.76" x2="-98.76" y2="319.07" xlink:href="#linear-gradient"/><linearGradient id="linear-gradient-17" x1="-83.17" x2="-83.17" y2="314.12" xlink:href="#linear-gradient"/><linearGradient id="linear-gradient-18" x1="-91.18" x2="-91.18" y2="321.28" xlink:href="#linear-gradient"/><linearGradient id="linear-gradient-19" x1="-95" x2="-95" y2="318.78" xlink:href="#linear-gradient"/><linearGradient id="linear-gradient-20" x1="-87.17" x2="-87.17" y2="316.72" xlink:href="#linear-gradient"/><linearGradient id="linear-gradient-21" x1="-79.3" x2="-79.3" y2="311.95" xlink:href="#linear-gradient"/><linearGradient id="linear-gradient-22" x1="-63.71" x2="-63.71" y2="321.24" xlink:href="#linear-gradient"/><linearGradient id="linear-gradient-23" x1="-71.72" x2="-71.72" y2="321.28" xlink:href="#linear-gradient"/><linearGradient id="linear-gradient-24" x1="-75.54" x2="-75.54" y2="318.78" xlink:href="#linear-gradient"/><linearGradient id="linear-gradient-25" x1="-67.71" x2="-67.71" y2="323.83" xlink:href="#linear-gradient"/><linearGradient id="linear-gradient-26" x1="-59.84" x2="-59.84" y2="319.07" xlink:href="#linear-gradient"/><linearGradient id="linear-gradient-27" x1="-44.25" x2="-44.25" y2="321.24" xlink:href="#linear-gradient"/><linearGradient id="linear-gradient-28" x1="-52.26" x2="-52.26" y2="328.4" xlink:href="#linear-gradient"/><linearGradient id="linear-gradient-29" x1="-56.08" x2="-56.08" y2="325.9" xlink:href="#linear-gradient"/><linearGradient id="linear-gradient-30" x1="-48.25" x2="-48.25" y2="323.83" xlink:href="#linear-gradient"/></defs><rect class="cls-41" x="95.15" y="49.71" width="276.01" height="276.01" rx="43.7" ry="43.7" transform="translate(18.87 -21.29) rotate(5.45)"/><ellipse class="cls-39" cx="224.08" cy="340.69" rx="200.11" ry="34"/><ellipse class="cls-49" cx="230.56" cy="333.59" rx="92.28" ry="16.01"/><path class="cls-33" d="m223.33,159.83c-9.53,0-19.82,1.3-23.13,6.48-1.05,1.65-1.14,3.49-.25,5.33,1.93,3.98,7.67,6.8,13.95,6.86,44.84.4,169.4.99,170.66.99,11.99,0,18.77-4.87,19.07-9.45.23-3.63-3.59-8.1-14.99-9.77-9.72-1.43-26.79,7.81-26.96,7.9-.17.09-.37.05-.49-.1-.13-.15-.14-.37-.04-.54.1-.17,9.83-16.67,4.33-27.6-3.22-6.39-10.99-9.7-23.1-9.82-.17,0-.33,0-.5,0-26.71,0-48.1,22.1-48.31,22.33-.13.14-.34.17-.5.07-.16-.1-.24-.3-.19-.5.03-.11,2.73-11.56-2.98-19.51-3.7-5.15-10.09-7.76-18.99-7.76-28.45,0-30.8,35.38-30.82,35.74,0,.12-.06.24-.15.31-.09.08-.2.12-.31.1-3.23-.4-9.57-1.04-16.29-1.04Z"/><path class="cls-33" d="m84.01,193.42c-9.53,0-19.82,1.3-23.13,6.48-1.05,1.65-1.14,3.49-.25,5.33,1.93,3.98,7.67,6.8,13.95,6.86,44.84.4,169.4.99,170.66.99,11.99,0,18.77-4.87,19.07-9.45.23-3.63-3.59-8.1-14.99-9.77-9.72-1.43-26.79,7.81-26.96,7.9-.17.09-.37.05-.49-.1-.13-.15-.14-.37-.04-.54.1-.17,9.83-16.67,4.33-27.6-3.22-6.39-10.99-9.7-23.1-9.82-.17,0-.33,0-.5,0-26.71,0-48.1,22.1-48.31,22.33-.13.14-.34.17-.5.07-.16-.1-.24-.3-.19-.5.03-.11,2.73-11.56-2.98-19.51-3.7-5.15-10.09-7.76-18.99-7.76-28.45,0-30.8,35.38-30.82,35.74,0,.12-.06.24-.15.31-.09.08-.2.12-.31.1-3.23-.4-9.57-1.04-16.29-1.04Z"/><g><g><path class="cls-46" d="m338.3,264.45c1.4-5.53,2.14-11.5,2.48-14.75.14-1.34-.86-2.52-2.2-2.61h0c-1.29-.09-2.41.85-2.54,2.13-.32,3.11-1.04,8.87-2.35,14.06l4.62,1.17Z"/><path class="cls-46" d="m214.14,284.89h4.76v-8.52c5.65-4.7,7.71-20,8.36-26.69.13-1.33-.86-2.5-2.2-2.6h0c-1.29-.09-2.41.86-2.54,2.15-1.03,10.67-3.85,22.2-7.03,23.73l-1.35.65v11.28Z"/><path class="cls-2" d="m203.2,282.5c-5.62,1.86-9.68,7.15-9.68,13.4l.03,13.01"/><path class="cls-2" d="m221.77,308.9l-.03-13.01c0-6-3.74-11.12-9.02-13.16"/><circle class="cls-2" cx="207.64" cy="283.41" r="4.45"/><rect class="cls-46" x="217.89" y="308.2" width="8.23" height="2.07" transform="translate(444.01 618.46) rotate(180)"/><rect class="cls-46" x="189.37" y="308.2" width="8.23" height="2.07" transform="translate(386.98 618.46) rotate(180)"/><path class="cls-2" d="m198.29,284.89v-9.78c-1.67-.8-3.03-2.9-4.15-5.62-.44-1.07-.66-2.01-.66-3.17v.28"/><line class="cls-14" x1="220.98" y1="267.74" x2="195.1" y2="267.74"/><line class="cls-14" x1="220.98" y1="303.71" x2="195.1" y2="303.71"/><g><path class="cls-2" d="m338.63,247.09s-1.79,24.76-8.57,28.02v9.78"/><path class="cls-2" d="m316.73,282.5c-5.62,1.86-9.68,7.15-9.68,13.4l.03,13.01"/><path class="cls-2" d="m335.3,308.9l-.03-13.01c0-6-3.74-11.12-9.02-13.16"/><circle class="cls-2" cx="321.18" cy="283.41" r="4.45"/><rect class="cls-46" x="331.43" y="308.2" width="8.23" height="2.07" transform="translate(671.08 618.46) rotate(180)"/><rect class="cls-46" x="302.91" y="308.2" width="8.23" height="2.07" transform="translate(614.06 618.46) rotate(180)"/><path class="cls-2" d="m311.83,284.89v-9.78c-1.67-.8-3.03-2.9-4.15-5.62-.44-1.07-.66-2.01-.66-3.17v.28"/><line class="cls-14" x1="334.52" y1="267.74" x2="308.64" y2="267.74"/></g><path class="cls-39" d="m214.24,257.77h129.51c1.4,0,2.58-1.06,2.73-2.45l.99-9.02c.18-1.63-1.1-3.05-2.73-3.05h-128.9l-1.6,14.52Z"/><path class="cls-42" d="m214.21,257.77h126.42c1.41,0,2.59-1.06,2.74-2.46l.99-9.01c.18-1.63-1.1-3.06-2.74-3.06h-126.42c-1.41,0-2.59,1.06-2.74,2.46l-.99,9.01c-.18,1.63,1.1,3.06,2.74,3.06Z"/><path class="cls-42" d="m179.59,272.99h158.94c1.17,0,2.12.95,2.12,2.12h0c0,1.17-.95,2.12-2.12,2.12h-158.94v-4.24h0Z" transform="translate(520.24 550.22) rotate(180)"/><line class="cls-14" x1="334.12" y1="303.71" x2="308.24" y2="303.71"/></g><rect class="cls-46" x="316.42" y="300.94" width="9.84" height="5.52" rx="2.76" ry="2.76" transform="translate(642.67 607.41) rotate(-180)"/><rect class="cls-46" x="203.12" y="300.94" width="9.84" height="5.52" rx="2.76" ry="2.76" transform="translate(416.08 607.41) rotate(180)"/><rect class="cls-42" x="306.42" y="272.99" width="17.56" height="4.24" rx="2.12" ry="2.12" transform="translate(630.4 550.22) rotate(-180)"/><rect class="cls-39" x="323.21" y="272.99" width="20.62" height="4.24" rx="2.12" ry="2.12" transform="translate(667.04 550.22) rotate(-180)"/><rect class="cls-39" x="299.57" y="272.99" width="19.33" height="4.24" rx="2.12" ry="2.12" transform="translate(618.47 550.22) rotate(-180)"/></g><ellipse class="cls-38" cx="95.29" cy="326.86" rx="4.57" ry="1.64"/><ellipse class="cls-38" cx="357.02" cy="325.22" rx="4.57" ry="1.64"/><ellipse class="cls-38" cx="111.2" cy="330.96" rx="11.41" ry="4.1"/><ellipse class="cls-38" cx="326.65" cy="319.68" rx="11.41" ry="4.1"/><g><rect class="cls-43" x="37.03" y="309.33" width="85.73" height="4.13"/><g><path class="cls-43" d="m83.09,295.32c-.92,0-1.66.74-1.66,1.66v39.74c0,.92.74,1.66,1.66,1.66h21.11v-43.06h-21.11Z"/><path class="cls-40" d="m119.57,336.72v-39.74c0-.92-.74-1.66-1.66-1.66h-13.71v43.06h13.71c.92,0,1.66-.74,1.66-1.66Z"/></g><g><path class="cls-43" d="m40.49,295.32c-.92,0-1.66.74-1.66,1.66v39.74c0,.92.74,1.66,1.66,1.66h21.11v-43.06h-21.11Z"/><path class="cls-40" d="m76.97,336.72v-39.74c0-.92-.74-1.66-1.66-1.66h-13.71v43.06h13.71c.92,0,1.66-.74,1.66-1.66Z"/></g><rect class="cls-43" x="36.7" y="342.12" width="86.97" height="4.21"/><rect class="cls-43" x="78.49" y="297.85" width="1.69" height="46.83"/><polygon class="cls-43" points="37.01 297.85 37.01 344.68 43.25 344.68 37.01 349.81 37.01 359.47 34.41 359.47 34.41 297.85 37.01 297.85"/><polygon class="cls-43" points="121.07 297.85 121.07 344.68 114.83 344.68 121.07 349.81 121.07 359.47 123.67 359.47 123.67 297.85 121.07 297.85"/><path class="cls-43" d="m31.87,321.27h2.54v-17.6h-1.13c-.44,0-.81.32-.87.75l-.49,3.24c-.06.38-.27.72-.59.94l-1.98,1.36c-.44.3-.66.82-.59,1.35l1.23,8.34c.14.93.94,1.63,1.88,1.63Z"/></g><g><path class="cls-43" d="m258.64,325.21s.97,4.44,2.51,5.79,6.18,8.11,6.18,10.24,0,11.59-13.33,22.21c-13.33,10.62-15.07,1.74-11.78-5.41s6.76-14.68,5.99-17.19c-.77-2.51-.65-7.36-.65-7.36l11.08-8.29Z"/><path class="cls-43" d="m253.74,324.26l-8.91,10.42-.55,3.21s2.95,1.56,12.34-1.55c9.39-3.11,8.31-7.82,8.31-7.82l-11.19-4.27Z"/><path class="cls-43" d="m313.24,336.35l1.35,5.99s.97,11.78.97,16.42l-27.19,1.07c-1.1.04-1.95-.98-1.68-2.05.51-2.07,1.37-4.98,2.22-5.59,1.35-.97,8.5-4.64,9.46-8.31.97-3.67.97-6.57.97-6.57l13.91-.97Z"/><path class="cls-34" d="m212.83,57.25l-2.57-10.38-4.11-8.53s1.64-2.57,3.34,0l3.34,5.76-3.34-11.2s.57-2.16,2.42-.72l4.29,10.58-1.93-14.28s1.75-2.06,3.6,0l2.57,13.93-.72-13.01s0-2.14,1.54-1.84c1.54.3,1.85,2.46,1.85,2.46l2.78,17.58,6.12-6.78s.98-1.44,3.65.51c0,0-5.14,7.3-5.35,9.25s1.44,11.31-3.7,13.77c-5.14,2.47-13.77-7.09-13.77-7.09Z"/><path class="cls-34" d="m263.54,80.32s-.08,22.65,7.29,28.15c15.97,11.94,21.02-12.11,21.02-12.11l-28.3-16.04Z"/><path class="cls-43" d="m298.23,76.69s7.06,7.9,2.52,16.81-9.92,16.65-9.92,16.65h-11.94s-1.85-12.44-10.26-19c-8.41-6.56-11.6-11.94-7.57-22.53,4.04-10.59,18.83-11.1,29.93-3.53,0,0-1.51-3.36-4.71-4.2,0,0,10.76,1.18,11.94,15.81Z"/><path class="cls-45" d="m316,220.65s-1.04,48.85,0,54.03c1.04,5.18-.46,60.24-.23,63.97,0,0-13.43,3.11-21.09-1.24,0,0-2.28-40.78-6.21-49.06-3.93-8.28-2.48-47.82-2.48-47.82l-26.08,33.95s4.09,41.43,5.03,54.06c0,0-13.61.26-20.64,9.36,0,0-6.74-30.3-11.09-48.52-4.35-18.22-1.86-23.81,7.45-42.85,9.32-19.04,17.39-34.36,17.39-34.36l57.96,8.49Z"/><path class="cls-34" d="m347.14,192.62s.64,6.36,3.5,7.64c2.86,1.27,5.52,8.6,4.4,12.9-1.11,4.29-8.27,6.17-12.47,8.41-3.77,2.01-7.64-6.06-7-12.57.64-6.5,3.98-7.79-.31-11.61-4.29-3.82,11.88-4.77,11.88-4.77Z"/><path class="cls-47" d="m351.09,195.3s-.37-15.35-7.49-41.56c-7.11-26.21-32.2-41.19-32.2-41.19-23.77-7.07-44.32-1.4-44.32-1.4h0l-25.32-14.32-7.49-42.68c-16.1-12.36-25.09,2.25-25.09,2.25l9.95,52.17c.59,3.08,2.17,5.88,4.5,7.98l30.48,27.42s-.75,25.51-5.99,37.87c-5.24,12.36-9.36,31.83-9.36,31.83,18.72,18.35,53.54,25.09,53.54,25.09l7.86-14.6,3,11.98,22.84-16.85c1.5-8.61-7.49-61.41-7.49-61.41,8.99,13.1,15.35,43.81,15.35,43.81l17.22-6.37Z"/><path class="cls-48" d="m318.51,157.86c8.99,13.1,15.35,43.81,15.35,43.81l17.22-6.37s-.37-15.35-7.49-41.56c-7.11-26.21-32.2-41.19-32.2-41.19-1.89-.56-3.75-1.03-5.59-1.44,3.78,9.64,11.36,30.6,12.7,46.75Z"/><path class="cls-48" d="m267.08,111.15s32.75-12.88,38.73-.04c0,0-15.15-4.28-38.73.04Z"/><path class="cls-48" d="m247.69,182.88l23.53,7.86-10.16,18.09-19.91-5.16s2.66-16.42,6.55-20.79Z"/></g><path class="cls-36" d="m314.94,362.88s-13.87-54.39,15.59-45.18c0,0-.71-17.04,15.22-17.04s19.03,17.87,19.03,17.87c0,0-1.05-24.84,13.92-24.44,22.73.6,18.36,52.2,18.36,52.2,0,0-9.53-33.97,19.56-26.67,29.94,7.52-10.61,43.32-10.61,43.32l-91.07-.06Z"/><g><line class="cls-12" x1="427.83" y1="321.51" x2="427.83" y2="362.15"/><line class="cls-13" x1="412.24" y1="315.77" x2="412.24" y2="362.15"/><line class="cls-11" x1="420.25" y1="320.25" x2="420.25" y2="362.15"/><line class="cls-29" x1="424.07" y1="328.35" x2="424.07" y2="362.15"/><line class="cls-4" x1="416.24" y1="316.05" x2="416.24" y2="362.15"/><line class="cls-17" x1="408.37" y1="319.96" x2="408.37" y2="362.15"/><line class="cls-25" x1="392.78" y1="308.04" x2="392.78" y2="362.15"/><line class="cls-23" x1="400.8" y1="329.29" x2="400.8" y2="362.15"/><line class="cls-27" x1="404.61" y1="326.79" x2="404.61" y2="362.15"/><line class="cls-30" x1="396.78" y1="310.64" x2="396.78" y2="362.15"/><line class="cls-10" x1="388.91" y1="305.88" x2="388.91" y2="362.15"/><line class="cls-6" x1="373.32" y1="308.04" x2="373.32" y2="362.15"/><line class="cls-19" x1="381.34" y1="315.21" x2="381.34" y2="362.15"/><line class="cls-21" x1="385.15" y1="312.71" x2="385.15" y2="362.15"/><line class="cls-3" x1="377.32" y1="310.64" x2="377.32" y2="362.15"/><line class="cls-5" x1="369.45" y1="319.96" x2="369.45" y2="362.15"/><line class="cls-20" x1="353.86" y1="315.01" x2="353.86" y2="362.15"/><line class="cls-31" x1="361.88" y1="322.17" x2="361.88" y2="362.15"/><line class="cls-15" x1="365.69" y1="319.68" x2="365.69" y2="362.15"/><line class="cls-24" x1="357.86" y1="317.61" x2="357.86" y2="362.15"/><line class="cls-32" x1="349.99" y1="312.84" x2="349.99" y2="362.15"/><line class="cls-22" x1="334.4" y1="322.13" x2="334.4" y2="362.15"/><line class="cls-8" x1="342.42" y1="322.17" x2="342.42" y2="362.15"/><line class="cls-9" x1="346.23" y1="319.68" x2="346.23" y2="362.15"/><line class="cls-7" x1="338.41" y1="324.73" x2="338.41" y2="362.15"/><line class="cls-16" x1="330.53" y1="319.96" x2="330.53" y2="362.15"/><line class="cls-18" x1="314.94" y1="322.13" x2="314.94" y2="362.15"/><line class="cls-26" x1="322.96" y1="329.29" x2="322.96" y2="362.15"/><line class="cls-1" x1="326.77" y1="326.79" x2="326.77" y2="362.15"/><line class="cls-28" x1="318.95" y1="324.73" x2="318.95" y2="362.15"/><path class="cls-44" d="m382.67,312.42c.29.01.55-.05.8-.18.26-.08.48-.23.67-.43.2-.19.35-.41.43-.67.13-.25.19-.51.18-.8l-.07-.55c-.1-.35-.28-.66-.53-.92l-.42-.33c-.32-.19-.67-.28-1.05-.28-.29-.01-.55.05-.8.18-.26.08-.48.23-.67.43-.2.19-.35.41-.43.67-.13.25-.19.51-.18.8l.07.55c.1.35.28.66.53.92l.42.33c.32.19.67.28,1.05.28h0Z"/><path class="cls-44" d="m368.31,323.15c2.67,0,2.67-4.15,0-4.15s-2.67,4.15,0,4.15h0Z"/><path class="cls-44" d="m387.72,314.17c-.07-.02-.13-.04-.2-.06l.92.54c-.35-.34-.67-.47-1.11-.65l1,.58c-.65-.5-1.23-.84-2.08-.8-.48.02-.94.11-1.37.35-.27.15-.49.35-.73.54l.46-.36-.08.06c-.57.44-.95.88-1.05,1.61-.08.63.07,1.43.61,1.85.23.18.45.38.7.53.42.27.98.37,1.47.36,1-.02,1.95-.53,2.43-1.42l-.35.46c.31-.35.51-.64.65-1.1l-.54.92c.05-.05.09-.11.14-.17.45-.55.7-1.18.5-1.9-.18-.65-.71-1.19-1.36-1.36h0Z"/><path class="cls-37" d="m375.93,308.91c-.52-.21-1.02-.3-1.59-.15-.18.05-.35.11-.52.17-.45.15-.82.39-1.11.76s-.48.83-.46,1.29c.02.38.11.74.29,1.08.26.49.77.81,1.27.98.17.06.35.12.52.17.4.11.9.11,1.3-.03.1-.03.2-.08.29-.12l.52-.22c.25-.14.45-.32.61-.56.28-.36.48-.84.46-1.31-.02-.38-.12-.75-.29-1.09-.14-.25-.32-.45-.56-.61-.21-.19-.45-.32-.73-.39h0Z"/><path class="cls-44" d="m361.81,311.14c-1.06-.24-2.16-.63-3.26-.31-1.81.53-1.82,3.15,0,3.68,1.1.32,2.19-.07,3.26-.31,1.51-.34,1.51-2.72,0-3.06h0Z"/><path class="cls-44" d="m339.65,325.28c-.09.05-.19.11-.28.16l-.03.02-.41.32c-.27.25-.31.39-.44.69-.05.13-.11.25-.16.38-.09.35-.09.7,0,1.05.09.33.26.62.51.87.25.24.54.41.87.51.35.09.7.09,1.05,0,.04-.02.09-.04.13-.05l.49-.21c.09-.04.17-.1.24-.18.15-.09.28-.21.37-.37.07-.07.13-.15.18-.24.05-.09.11-.19.16-.28l.2-.47c.08-.26.09-.52.03-.78,0-.18-.04-.34-.13-.49-.08-.24-.21-.45-.4-.63l-.39-.3-.47-.2c-.26-.08-.52-.09-.78-.03-.26.01-.5.09-.72.23h0Z"/><path class="cls-37" d="m335.56,317.36c-.76-.19-1.46-.28-2.25-.18-.83.11-1.48.4-2.22.76-1.74.84-.81,3.46.95,3.49.71.01,1.58,0,2.35-.32.31-.13.66-.22.95-.4.32-.2.62-.49.91-.72.94-.75.37-2.37-.69-2.63h0Z"/><path class="cls-37" d="m383.61,295.75c-.2.02-.39.03-.59,0l.55.07c-.38-.08-.77-.18-1.16-.18-.64,0-1.38.29-1.81.77-.6.69-.8,1.66-.32,2.48.57.97,1.83,1.45,2.91,1.12.49-.15.97-.42,1.39-.73.67-.49,1.15-1.3.88-2.15-.1-.31-.27-.6-.49-.84-.29-.32-.91-.61-1.35-.56h0Z"/><path class="cls-44" d="m394.4,308.5c-.16,0-.33-.02-.49-.04l.56.08c-.24-.04-.47-.1-.71-.18-.46-.16-1.01-.07-1.44.11s-.81.48-1.06.9c-.21.36-.28.7-.3,1.11-.02.53.26,1.2.65,1.56.46.42.95.59,1.56.65s1.19-.02,1.77-.15c1-.22,1.61-1.3,1.48-2.26-.14-1.02-.99-1.76-2.02-1.79h0Z"/><path class="cls-44" d="m361.6,300.97c-.71-.05-1.55-.23-2.24.02-.72.26-1.36.91-1.32,1.73s.54,1.45,1.32,1.73c.68.25,1.52.07,2.24.02.91-.07,1.8-.76,1.75-1.75s-.77-1.68-1.75-1.75h0Z"/><path class="cls-44" d="m352.1,304.86c-.63.21-1.37.38-1.81.91-.23.27-.43.56-.53.91-.12.45-.07.92.1,1.34.14.34.34.6.63.82.13.13.28.22.45.26.25.13.51.19.79.18-1.08-.13-2.3-1.69-1.62-.81.27.35.64.62,1.07.74s.92.1,1.34-.04.78-.34,1.17-.52c.43-.2.85-.79.95-1.24s.08-.91-.1-1.35c-.38-.9-1.46-1.54-2.45-1.2h0Z"/><path class="cls-44" d="m353.86,326.05c-.26-.02-.21-.02.14.02-.1-.02-.2-.05-.3-.08-.18-.04-.37-.08-.55-.12-.35-.08-.73-.18-1.08-.18-.8.09-.91.12-.32.06-.1,0-.2,0-.3-.01-.89-.06-1.75.62-2.08,1.4-.36.85-.17,1.82.47,2.49.29.3.58.63.94.84.5.29,1.21.43,1.78.42.88-.01,1.69-.27,2.42-.76.78-.53,1.31-1.51,1-2.47s-1.11-1.52-2.11-1.61h0Z"/><path class="cls-37" d="m349.19,315.29s-.09.02-.13.03l.56-.07c-.25.03-.51.03-.76.1-.27.08-.42.18-.64.29l.47-.2c-.09.04-.18.06-.28.08l.47-.06c-.39.05-.61.07-.96.26-.49.26-.86.88-.83,1.44.03.62.32,1.17.77,1.59.32.3.64.51,1.06.62.51.13.88.06,1.39-.02s1.02-.56,1.26-.97c.26-.45.38-1.12.21-1.62-.36-1.11-1.44-1.75-2.59-1.47h0Z"/><path class="cls-44" d="m346.23,308.6c-.5,0-1-.03-1.48.11-.99.28-1.49,1.46-.96,2.35.25.43.62.74.97,1.08,1.06,1.01,2.79.68,3.36-.67s-.42-2.88-1.9-2.87h0Z"/><path class="cls-44" d="m405.23,320.58c-.66-.11-1.32-.25-1.99-.29-.55-.04-1.29.28-1.66.69s-.57.82-.64,1.35c-.15,1.1.54,2.31,1.68,2.57.45.1.91.14,1.37.2.31.1.62.11.93.04.31-.01.6-.11.87-.28.49-.28.95-.84,1.08-1.4.14-.6.11-1.27-.24-1.8-.31-.48-.81-.98-1.4-1.08h0Z"/><path class="cls-44" d="m405.83,313.96c-.76.55-1.48,1.12-2.17,1.75-.75.67-.74,1.9-.16,2.66s1.76,1.07,2.61.52c.79-.51,1.52-1.06,2.25-1.64.37-.3.63-1.01.61-1.48s-.16-.89-.45-1.27c-.58-.76-1.85-1.15-2.69-.54h0Z"/><path class="cls-44" d="m386.3,300.87c-.35.19-.67.41-.92.72l-.2.25c-.08.1-.15.19-.23.29-.17.22-.27.46-.37.72-.21.55,0,1.22.34,1.66.13.21.31.37.54.49.3.17.62.26.96.26.32.04.73-.09,1.06-.15.38-.07.72-.24,1.04-.45.48-.31.86-.75,1.01-1.32.15-.53.08-1.23-.22-1.7s-.75-.88-1.32-1.01-1.16-.07-1.7.22h0Z"/><path class="cls-44" d="m359.25,318.85c-.08.07-.16.15-.24.22l.34-.26-.28.19c-.43.3-.72.71-.72,1.25s.29.95.72,1.25l.28.19-.34-.26c.08.07.16.14.24.22.25.23.55.4.87.51.42.14.89.07,1.29-.1.33-.14.58-.33.79-.61.26-.33.44-.77.42-1.2-.03-.69-.37-1.35-.98-1.71-.78-.46-1.75-.29-2.4.31h0Z"/><path class="cls-44" d="m412.84,321.3l.89.61-.44-.34c.13.11.26.23.38.34.75.69,1.92.91,2.82.36.69-.42,1.25-1.15,1.15-2.01-.06-.53-.16-.97-.5-1.41-.29-.37-.73-.75-1.21-.83-.53-.09-1.02-.27-1.53-.44-.96-.32-2.03.3-2.4,1.18-.41.97-.02,1.96.83,2.54h0Z"/><path class="cls-44" d="m425.19,331.26l1.74.46c1.04.27,2.28-.35,2.53-1.44.12-.53.09-1.12-.21-1.59-.27-.42-.72-.88-1.23-.95l-1.79-.25c-.54-.07-1.01-.09-1.5.2-.4.24-.79.7-.9,1.17-.23,1.02.31,2.12,1.36,2.4h0Z"/><path class="cls-37" d="m408.28,331.96c.06.17.13.34.18.51.09.31.24.57.46.8.23.22.49.38.8.46l.14.03c.22.07.44.08.67.03.22-.01.43-.08.62-.2.35-.22.7-.58.77-1l.02-.12.06-.48c0-.25-.04-.48-.16-.7-.04-.15-.12-.29-.23-.4-.13-.2-.3-.35-.51-.46-.02-.02-.05-.03-.07-.05l.36.28-.35-.31-.34-.26c-.19-.12-.4-.19-.62-.2-.15-.04-.29-.04-.44,0-.22.01-.43.08-.62.2-.24.15-.44.35-.59.59-.12.19-.19.4-.2.62-.05.22-.04.44.03.66h0Z"/><path class="cls-37" d="m424.62,340.87c2.4,0,2.41-3.73,0-3.73s-2.41,3.73,0,3.73h0Z"/><path class="cls-44" d="m320.88,330.61c-.65-.1-1.16-.21-1.84-.09-.22.04-.44.08-.65.13-.5.11-.99.26-1.48.43-1.62.56-2.56,2.21-1.86,3.87s2.52,2.13,4.07,1.37c.18-.09.4-.22.6-.28-.66.2.04,0,.15-.04.21-.07.42-.13.63-.2l.65-.28c.62-.49.74-.57.34-.25.88-.54,1.35-1.52,1.21-2.53-.12-.9-.84-1.96-1.82-2.11h0Z"/><path class="cls-44" d="m320.15,320.35c-1.24-.47-2.5-.4-3.78-.18-.67.12-1.38.75-1.71,1.32-.36.61-.51,1.52-.29,2.2.47,1.45,1.98,2.45,3.52,2,.74-.22,1.5-.37,2.26-.53,1.02-.21,1.88-1.37,1.83-2.4-.05-1.18-.76-1.99-1.83-2.4h0Z"/><path class="cls-44" d="m395.45,309.73c-1.21-1.04-2.71-1.45-4.24-1.81-1.21-.28-2.66.17-3.27,1.33-.39.75-.46,1.42-.29,2.23.27,1.28,1.57,2.07,2.79,2.13,1.58.08,3.12.07,4.58-.6,1.18-.54,1.38-2.46.42-3.28h0Z"/><path class="cls-44" d="m395.7,319.42c-1.46-.34-2.63.28-3.92.87l1.55-.42c-.81-.05-1.52.32-2.23.64s-1.29,1.22-1.48,1.92c-.21.77-.12,1.8.32,2.48s1.1,1.29,1.92,1.48,1.8.18,2.48-.32c.62-.46,1.29-.87,1.63-1.59l-1.1,1.1c1.09-.81,2.26-1.55,2.65-2.93s-.45-2.9-1.83-3.22h0Z"/></g><g><path class="cls-34" d="m193.35,179.07l1.64-4.13,2.17-3.29s-.53-1.15-1.38-.19l-1.7,2.19,2-4.43s-.11-.92-.96-.43l-2.36,4.12,1.59-5.77s-.61-.94-1.48-.2l-1.83,5.6,1.02-5.32s.12-.88-.53-.84-.9.91-.9.91l-2.12,7.09-2.14-3.14s-.32-.65-1.53,0c0,0,1.71,3.29,1.69,4.11s-1.22,4.58.76,5.88c1.98,1.3,6.07-2.15,6.07-2.15Z"/><g><g><path class="cls-43" d="m156.26,301.66c-.07,1.29.02,2.24-.1,3.62-.12,1.38-.81,3.89-.89,5.18s.3,1.89,1.57,1.94c5.06.22,10.61.21,15.7.3.94.02,1.22-.51,1.37-1.31.06-.31.04-.68.01-1.15-.03-.47-.13-.94-.68-1.35-2.34-1.76-4.88-3.67-7.28-5.45-.44-1.53-.88-3.05-1.32-4.58-2.79.94-5.6,1.88-8.39,2.79Z"/><path class="cls-46" d="m165.17,237.08c-1,20.95.89,42.07,1.19,63.03-3.5,2.09-8.07,1.67-11.92,1.39-.69-17.55-1.75-35.08-2.9-52.6-.29,0-.59,0-.88,0-.03-3.88-.05-7.77-.13-11.65,4.89.04,9.75.09,14.64-.17Z"/></g><g><path class="cls-43" d="m144.83,301.86c.03,1.29-.1,2.25-.03,3.64.07,1.39.68,3.94.71,5.23s-.36,1.88-1.62,1.9c-5.06.07-10.6-.11-15.69-.17-.94-.01-1.2-.55-1.33-1.35-.05-.31-.02-.68.02-1.15.04-.47.16-.94.72-1.34,2.39-1.69,4.98-3.53,7.44-5.24.5-1.52.98-3.03,1.48-4.55,2.77,1,5.54,2.03,8.3,3.03Z"/><path class="cls-46" d="m136.78,237.3c-.45,20.92-.99,41.83-2.03,62.74,3.46,2.18,8.01,1.9,11.89,1.71,1.27-17.6,2.28-35.21,3.13-52.84.29,0,.59,0,.88,0-.03-3.88-.05-7.77-.13-11.65-4.58-.04-9.17.02-13.76.05Z"/></g></g><path class="cls-43" d="m165.41,235.75c-.09,1.05.03-.23-.13,1.36s-.34,6.07-.32,8.22c-9.45-2.05-18.82-4.58-28.21-6.92-.01-.98-.01-1.95-.02-2.92,9.53.08,19.16,1.01,28.68.26Z"/><path class="cls-35" d="m165.57,232.12c-.07,1.19.7,3.73.56,4.91-10.13,3.09-20.23,2.35-30.27-.59,0-1.19,0-2.38-.01-3.57,10.18.19,19.56-.15,29.73-.75Z"/><path class="cls-34" d="m121.23,232.12c-.72.84-1.83,1.89-2.46,2.68s-.7.83-.95,1.85c-.25,1.02-.58,2.62-.79,3.81s.33,2.16,1.36,2.76c.04.02.12.06.17.08,1.16.38,2.12.23,2.98-.73.43-.47,1.01-1.23,1.4-1.74.71-.94.95-1.76,1.02-2.92.02-.39-.02-.97,0-1.38.18.92.36,1.86.53,2.79.33,0,.65-.02.98-.03.17-2.18.34-4.36.52-6.54-1.59-.21-3.15-.43-4.75-.64Z"/><path class="cls-37" d="m167.08,229.7c-.13,2.24-1.8,3.68-3.08,4.01-9.05,2.31-17.71,2.36-25.99.3-3.04-.76-2.92-1.65-2.83-3.9.29-7.48,1.99-15.51,2.62-23.11-3.2,9.27-6.43,18.9-9.68,28.06-.52,1.47-1.53,1.58-2.79,1.01-1.25-.57-3.09-1.89-4.33-2.61-.81-.46-1.1-1.34-.86-2.1,4.01-12.74,9.92-25.21,15.57-37.01,1.86-3.88,4.92-5.2,8.89-5.34,3.97-.14,8.18-.8,12.34-.05,4.16.76,7.38,1.83,11.37,1.83,12.32,0,13.85-1.93,17.25-12.36.49-1.49.16-2.49,1.35-2.12s4.33,1.75,5.64,2.11c2.78.77.64,1.88-.26,4.15,0,0-3.73,21.39-27.88,20.18,0,0,2.77,25.53,2.68,26.94Z"/><path class="cls-34" d="m150.48,191.85c.23.02.62,0,.85-.01,1.47-.13,2.42-1.1,2.5-2.52.08-1.42-.04-2.68,0-4.06-1.99.01-3.95,0-5.93.02.05,1.4-.06,2.67.04,4.09.1,1.43,1.07,2.37,2.54,2.48Z"/><path class="cls-43" d="m147.91,188.2c.99-.23,1.97-.46,2.96-.69.99-1.99,1.97-3.99,2.97-5.97-1.97,0-3.95,0-5.92-.02-.02,2.23-.02,4.45,0,6.68Z"/><path class="cls-34" d="m144.44,177.91c-.06,3.84,2.02,9.39,6.42,9.37,4.4-.02,6.49-5.46,6.54-9.26.04-3.8-2.23-7.68-6.37-7.75-4.14-.06-6.52,3.8-6.59,7.64Z"/><path class="cls-42" d="m157.5,178.98c1.56-.87,2.72-2.29,2.73-4.09.01-1.8-.24-3.36-2.07-3.72-1.61-3.49-2.81-6.4-7.6-6.42-4.8-.02-8.37,3.49-9.73,8.39.26,1.24.75,2.66,1.67,3.49.91.83.65,1.78,1.79,2.42.69-1.27-1.23-1.89.68-3.25,1.91-1.36,6.84,1.62,9.16-1.96.75,1.99,1.43,4.05,3.38,5.12Z"/></g></svg>