<?xml version="1.0" encoding="UTF-8"?><svg id="Layer_13" xmlns="http://www.w3.org/2000/svg" width="440" height="380" viewBox="0 0 440 380"><defs><style>.cls-b1{stroke-width:10px;}.cls-b1,.cls-b2{fill:none;stroke:#264653;stroke-miterlimit:10;}.cls-b3{fill:#fff;}.cls-b4{fill:#fed9b7;}.cls-b5{fill:#f7c49a;}.cls-b2{stroke-width:6px;}.cls-b6{fill:#82a860;}.cls-b7{fill:#05384c;}.cls-b8{fill:#f4a261;}.cls-b9{fill:#8ecae6;}.cls-b10{fill:#e76f51;}.cls-b11{fill:#023047;}.cls-b12{fill:#ffeedf;}.cls-b13{fill:#728e55;}.cls-b14{fill:#c6e4f2;}.cls-b15{fill:#264653;}.cls-b16{fill:#d35a54;}</style></defs><rect class="cls-b14" x="80.71" y="49.71" width="276.01" height="276.01" rx="43.7" ry="43.7" transform="translate(26.4 -26.97) rotate(7.51)"/><path class="cls-b3" d="m73.8,118.84c-9.53,0-19.82,1.3-23.13,6.48-1.05,1.65-1.14,3.49-.25,5.33,1.93,3.98,7.67,6.8,13.95,6.86,44.84.4,169.4.99,170.66.99,11.99,0,18.77-4.87,19.07-9.45.23-3.63-3.59-8.1-14.99-9.77-9.72-1.43-26.79,7.81-26.96,7.9-.17.09-.37.05-.49-.1-.13-.15-.14-.37-.04-.54.1-.17,9.83-16.67,4.33-27.6-3.22-6.39-10.99-9.7-23.1-9.82-.17,0-.33,0-.5,0-26.71,0-48.1,22.1-48.31,22.33-.13.14-.34.17-.5.07-.16-.1-.24-.3-.19-.5.03-.11,2.73-11.56-2.98-19.51-3.7-5.15-10.09-7.76-18.99-7.76-28.45,0-30.8,35.38-30.82,35.74,0,.12-.06.24-.15.31-.09.08-.2.12-.31.1-3.23-.4-9.57-1.04-16.29-1.04Z"/><path class="cls-b3" d="m243.59,81.63c-6.6,0-13.73.9-16.02,4.49-.73,1.14-.79,2.42-.17,3.69,1.34,2.76,5.31,4.71,9.66,4.75,31.05.28,117.3.68,118.17.69,8.31,0,13-3.37,13.2-6.54.16-2.51-2.48-5.61-10.38-6.77-6.73-.99-18.55,5.4-18.67,5.47-.11.06-.26.04-.34-.07-.09-.1-.1-.26-.03-.37.07-.11,6.8-11.55,3-19.11-2.23-4.43-7.61-6.72-16-6.8-.11,0-.23,0-.34,0-18.5,0-33.31,15.3-33.45,15.46-.09.1-.23.11-.34.05-.11-.07-.17-.21-.13-.34.02-.08,1.89-8-2.06-13.51-2.56-3.57-6.99-5.37-13.15-5.37-19.7,0-21.33,24.5-21.34,24.75,0,.08-.04.16-.1.22-.06.05-.14.08-.22.07-2.24-.27-6.63-.72-11.28-.72Z"/><ellipse class="cls-b4" cx="209.65" cy="340.69" rx="200.11" ry="34"/><ellipse class="cls-b5" cx="212.62" cy="340.81" rx="156.99" ry="14.58"/><g><g><path class="cls-b15" d="m364.68,245.49c2.94-11.62,4.5-24.16,5.2-30.99.29-2.81-1.81-5.28-4.62-5.49h0c-2.7-.19-5.06,1.79-5.34,4.48-.67,6.54-2.18,18.64-4.94,29.54l9.69,2.46Z"/><path class="cls-b15" d="m103.85,288.43h10v-17.89c11.87-9.88,16.2-42.01,17.56-56.07.27-2.8-1.82-5.26-4.62-5.46h0c-2.71-.2-5.07,1.81-5.33,4.52-2.16,22.41-8.08,46.63-14.77,49.85l-2.83,1.36v23.69Z"/><path class="cls-b1" d="m80.87,283.4c-11.81,3.9-20.33,15.03-20.33,28.14l.07,27.32"/><path class="cls-b1" d="m119.88,338.87l-.07-27.32c0-12.6-7.86-23.36-18.94-27.65"/><circle class="cls-b1" cx="90.21" cy="285.31" r="9.34"/><rect class="cls-b15" x="111.73" y="337.39" width="17.29" height="4.35" transform="translate(240.75 679.13) rotate(180)"/><rect class="cls-b15" x="51.84" y="337.39" width="17.29" height="4.35" transform="translate(120.97 679.13) rotate(180)"/><path class="cls-b1" d="m70.57,288.43v-20.55c-3.5-1.68-6.37-6.1-8.71-11.8-.92-2.26-1.38-4.22-1.38-6.66v.58"/><line class="cls-b2" x1="118.22" y1="252.4" x2="63.86" y2="252.4"/><line class="cls-b2" x1="118.22" y1="327.95" x2="63.86" y2="327.95"/><g><path class="cls-b1" d="m365.36,209.02s-3.75,52.01-18,58.86v20.55"/><path class="cls-b1" d="m319.37,283.4c-11.81,3.9-20.33,15.03-20.33,28.14l.07,27.32"/><path class="cls-b1" d="m358.38,338.87l-.07-27.32c0-12.6-7.86-23.36-18.94-27.65"/><circle class="cls-b1" cx="328.71" cy="285.31" r="9.34"/><rect class="cls-b15" x="350.23" y="337.39" width="17.29" height="4.35" transform="translate(717.75 679.13) rotate(180)"/><rect class="cls-b15" x="290.34" y="337.39" width="17.29" height="4.35" transform="translate(597.97 679.13) rotate(180)"/><path class="cls-b1" d="m309.07,288.43v-20.55c-3.5-1.68-6.37-6.1-8.71-11.8-.92-2.26-1.38-4.22-1.38-6.66v.58"/><line class="cls-b2" x1="356.73" y1="252.4" x2="302.36" y2="252.4"/></g><path class="cls-b8" d="m104.06,231.46h272.04c2.95,0,5.42-2.22,5.74-5.15l2.08-18.95c.38-3.42-2.3-6.41-5.74-6.41H107.42l-3.35,30.5Z"/><path class="cls-b10" d="m104,231.46h265.56c2.95,0,5.43-2.22,5.76-5.16l2.08-18.92c.38-3.43-2.31-6.42-5.76-6.42H106.08c-2.95,0-5.43,2.22-5.76,5.16l-2.08,18.92c-.38,3.43,2.31,6.42,5.76,6.42Z"/><path class="cls-b10" d="m31.28,263.43h334.79c1.95,0,3.53,1.58,3.53,3.53v1.84c0,1.95-1.58,3.53-3.53,3.53H31.28v-8.91h0Z" transform="translate(400.89 535.76) rotate(180)"/><line class="cls-b2" x1="355.89" y1="327.95" x2="301.53" y2="327.95"/></g><rect class="cls-b15" x="318.7" y="322.16" width="20.67" height="11.6" rx="5.8" ry="5.8" transform="translate(658.06 655.91) rotate(-180)"/><rect class="cls-b15" x="80.71" y="322.16" width="20.67" height="11.6" rx="5.8" ry="5.8" transform="translate(182.09 655.91) rotate(180)"/><rect class="cls-b10" x="297.71" y="263.43" width="36.88" height="8.91" rx="4.45" ry="4.45" transform="translate(632.3 535.76) rotate(180)"/><rect class="cls-b8" x="332.97" y="263.43" width="43.31" height="8.91" rx="4.45" ry="4.45" transform="translate(709.26 535.76) rotate(180)"/><rect class="cls-b8" x="283.31" y="263.43" width="40.61" height="8.91" rx="4.45" ry="4.45" transform="translate(607.24 535.76) rotate(180)"/></g><g><path class="cls-b16" d="m235.76,160.2s-74.52,57.07-41.68,69.57,43.79-27.08,43.79-27.08l-2.11-42.49Z"/><path class="cls-b9" d="m223.59,186.24s.96-13.65-15.83-20.66l1.69,11.49,14.14,9.17Z"/><path class="cls-b15" d="m218.39,330.46l2.14,16.4c.28,2.15-1.39,4.06-3.56,4.06h-32.51c-1.03,0-1.86-.83-1.86-1.86v-.81c0-1.43.81-2.73,2.1-3.36l16.34-8.03,2.02-6.39h15.34Z"/><path class="cls-b15" d="m247.81,331.2l1.42,6.88c.21,1.02.52,2.03.91,3.02l3.13,7.85c.57,1.42.16,2.93-.99,3.72l-1.72,1.17c-2.58,1.75-6.01,2.03-9.19.73l-6.17-2.52c-1.49-.61-2.48-2.11-2.39-3.63l.41-7.22c.07-1.19,0-2.41-.2-3.62l-1.18-7.13,15.96.75Z"/><path class="cls-b13" d="m237.32,227.25l19.01,1.73c2.69,9.08-10.92,38.1-20.38,37.76l-23.18-.84,8.03,65.65s-9.6,3.84-21.51,0l-21.94-66.48c-2.4-7.28-.09-15.28,5.82-20.16l1.56-1.29c2.5-2.06,5.48-3.42,8.63-3.98,2.68-.47,5.36-.92,7.97-1.69l35.99-10.69Z"/><path class="cls-b6" d="m275.93,233.59l4.54,15.37c2.69,9.08-4.32,18.12-13.78,17.78l-23.18-.84,8.03,65.65s-9.6,3.84-21.51,0l-21.94-66.48c-2.4-7.28-.09-15.28,5.82-20.16l1.56-1.29c3.33-2.75,7.52-4.25,11.84-4.25l48.63-5.76Z"/><path class="cls-b16" d="m254.28,150.56l-9.84,3.9c-5.34,2.37-9.58,7.41-11.44,12.95l-3.63,10.64c-1.45,5.53,2.6,9.68,3.67,11.89l.93,1.9c3.57,7.81.26,9.8-.16,11.2l-7.25,27.49s18.53-.18,29.11,10.19,30.53,4.99,30.53,4.99c0,0,9.11-63.35,1.4-86.2-5.59-16.55-33.31-8.96-33.31-8.96Z"/><path class="cls-b4" d="m254.32,143.68h7.65c1.72,0,3.12,1.4,3.12,3.12v12.29h-13.89v-12.29c0-1.72,1.4-3.12,3.12-3.12Z" transform="translate(544.75 237.49) rotate(166.33)"/><polygon class="cls-b11" points="251.17 152.1 257.55 148.95 261.03 133.85 247.53 137.13 251.17 152.1"/><path class="cls-b4" d="m237.36,131.19c2.38,9.78,11.91,19.77,20.19,17.76,8.28-2.01,12.16-15.26,9.78-25.05s-11.02-16.09-19.29-14.07-13.06,11.58-10.68,21.36Z"/><path class="cls-b8" d="m246.69,121.61s1.2,7.65,17.16,7.72c0,0-11.77,36.78,11.57,25.6,0,0,5.69-3.79,10.43,1.1,0,0,1.14-10.25-7.83-13.06-8.98-2.8,3.1-39.92-23.49-36.53,0,0-7.56-3.97-17.77,3-10.22,6.97-11.03,24.32,1.56,36.9,6.58,6.58-.67,10.09-.64,13.33,0,0,3.64-4.77,13.5-7.58l-1.01-4.17s-9.8-5.63-12.03-14.89c0,0,8.56-2.04,8.56-11.42Z"/><path class="cls-b3" d="m223.59,186.24s15.13-12.84,30.69-10.5l-1.89,1.17,1.89.16-.82.7h.82l1.23,5.63-16.07,9.04s-9.74,1.33-10.46,1.01-15.22-5.15-15.22-5.15l-13.03-11.7-3.08-4.48,3.86-2.93,2.03.86-1.09-1.64s13.74-1.66,21.15,17.83Z"/><path class="cls-b11" d="m229.19,188.25l27.12-5s-6.61,42.5-6.97,42.45-22.52.28-22.52.28c0,0-3.81-.54-8.77-1.63-1.33-.29-14.7-10.09-14.7-10.09l-6.55-42.72,22.38,15.49,10.01,1.23Z"/><path class="cls-b16" d="m219.18,187.03s4.24-2.07,10.01,1.23l-10.01-1.23Z"/><polygon class="cls-b9" points="200.56 169.92 220.15 185.69 199.91 170.41 200.56 169.92"/><polygon class="cls-b9" points="198.87 171.2 214.21 182.26 198.19 171.67 198.87 171.2"/><path class="cls-b9" d="m253.46,177.78s-11.95,2.25-25.46,7.91c0,0,17.18-7.99,26.28-8.62l-.82.7Z"/><path class="cls-b9" d="m254.62,179.34s-15.65,3.34-24.7,7.04c0,0,8.41-2.55,24.82-6.46l-.13-.58Z"/><path class="cls-b9" d="m202.44,168.42s11.55-.36,18.33,14.45c0,0-9.24-12.72-17.24-12.81l-1.09-1.64Z"/><polygon class="cls-b7" points="196.8 171.54 219.18 187.03 218.05 224.35 203.35 214.26 196.8 171.54"/><polygon class="cls-b7" points="227.33 225.97 229.92 188.99 228.63 188.99 226.14 225.88 227.33 225.97"/><path class="cls-b4" d="m200.79,197.55l-3.48,6.91c-1.24,2.47-.9,5.44.87,7.56l.59.7c1.79,2.14,4.7,3,7.37,2.17l3.87-1.2c1.49-.46,2.82-1.32,3.85-2.49l6.14-6.93c1.79-2.03,1.96-5.02.39-7.23l-.25-.35c-1.55-2.19-4.38-3.04-6.88-2.06l-4.94,1.93c-2.29.89-4.19,2.55-5.39,4.7l-1.22,2.29-.93-5.99Z"/><path class="cls-b4" d="m253.92,197.55l3.48,6.91c1.24,2.47.9,5.44-.87,7.56l-.59.7c-1.79,2.14-4.7,3-7.37,2.17l-3.87-1.2c-1.49-.46-2.82-1.32-3.85-2.49l-6.14-6.93c-1.79-2.03-1.96-5.02-.39-7.23l.25-.35c1.55-2.19,4.38-3.04,6.88-2.06l4.94,1.93c2.29.89,4.19,2.55,5.39,4.7l1.22,2.29.93-5.99Z"/><path class="cls-b16" d="m285.85,156.03s43.14,62.28,7.83,69.2c-35.31,6.92-41.29-2.6-41.29-2.6l13.94-15.16,19.52-51.45Z"/></g><ellipse class="cls-b12" cx="139.04" cy="323.11" rx="4.57" ry="1.64"/><ellipse class="cls-b12" cx="151.96" cy="317.37" rx="11.41" ry="4.1"/><ellipse class="cls-b12" cx="323.09" cy="358.51" rx="4.57" ry="1.64"/><ellipse class="cls-b12" cx="351.92" cy="356.87" rx="4.57" ry="1.64"/><ellipse class="cls-b12" cx="336.01" cy="352.76" rx="11.41" ry="4.1"/></svg>